<svg width="45" height="45" viewBox="0 0 45 45" fill="none" xmlns="http://www.w3.org/2000/svg">
<rect width="45" height="45" rx="22.5" fill="#2B5557"/>
<path d="M28.0483 15.5348C28.2054 15.3688 28.3941 15.236 28.6033 15.1441C28.8126 15.0523 29.0381 15.0033 29.2666 15.0002C29.4951 14.997 29.7219 15.0396 29.9336 15.1256C30.1453 15.2116 30.3377 15.3392 30.4993 15.5007C30.6608 15.6623 30.7884 15.8547 30.8744 16.0664C30.9604 16.2781 31.003 16.5049 30.9998 16.7334C30.9967 16.9619 30.9477 17.1875 30.8559 17.3967C30.764 17.606 30.6312 17.7947 30.4652 17.9517L25.456 22.961C25.4493 22.9676 25.4441 22.9755 25.4405 22.9842C25.4369 22.9928 25.435 23.0021 25.435 23.0115C25.435 23.0208 25.4369 23.0301 25.4405 23.0388C25.4441 23.0474 25.4493 23.0553 25.456 23.0619L30.4652 28.0712C30.6261 28.2295 30.754 28.418 30.8417 28.626C30.9294 28.8339 30.975 29.0572 30.9759 29.2829C30.9769 29.5086 30.9331 29.7322 30.8472 29.9409C30.7613 30.1496 30.6349 30.3392 30.4753 30.4988C30.3158 30.6584 30.1262 30.7849 29.9175 30.8708C29.7089 30.9568 29.4852 31.0006 29.2596 30.9997C29.0339 30.9988 28.8106 30.9532 28.6026 30.8656C28.3946 30.778 28.2061 30.6501 28.0478 30.4892L23.0385 25.4799C23.0319 25.4733 23.0241 25.468 23.0154 25.4644C23.0068 25.4608 22.9975 25.459 22.9881 25.459C22.9787 25.459 22.9695 25.4608 22.9608 25.4644C22.9522 25.468 22.9443 25.4733 22.9377 25.4799L17.9285 30.4892C17.7702 30.6501 17.5817 30.7781 17.3737 30.8658C17.1657 30.9534 16.9425 30.999 16.7168 31C16.4911 31.0009 16.2675 30.9572 16.0588 30.8713C15.8501 30.7853 15.6605 30.659 15.5009 30.4994C15.3413 30.3398 15.2149 30.1502 15.1289 29.9416C15.0429 29.7329 14.9991 29.5093 15 29.2836C15.0009 29.0579 15.0465 28.8346 15.1341 28.6266C15.2217 28.4186 15.3496 28.2301 15.5105 28.0718L20.5197 23.0625C20.5263 23.0558 20.5316 23.048 20.5352 23.0393C20.5388 23.0307 20.5406 23.0214 20.5406 23.012C20.5406 23.0027 20.5388 22.9934 20.5352 22.9847C20.5316 22.9761 20.5263 22.9682 20.5197 22.9616L15.5105 17.9523C15.1941 17.6308 15.0176 17.1974 15.0194 16.7464C15.0212 16.2953 15.2011 15.8633 15.52 15.5444C15.8389 15.2254 16.2709 15.0454 16.7219 15.0435C17.1729 15.0416 17.6064 15.218 17.9279 15.5343L22.9371 20.5436C22.9437 20.5502 22.9516 20.5555 22.9602 20.5591C22.9689 20.5626 22.9782 20.5645 22.9875 20.5645C22.9969 20.5645 23.0062 20.5626 23.0148 20.5591C23.0235 20.5555 23.0314 20.5502 23.038 20.5436L28.0483 15.5348Z" fill="white"/>
</svg>
