<svg width="157" height="114" viewBox="0 0 157 114" fill="none" xmlns="http://www.w3.org/2000/svg">
<rect x="48" width="60" height="60" rx="10" fill="#FF676E"/>
<path d="M75.1734 16C73.1222 16 71.4315 17.6907 71.4315 19.7419V34.4758L70.6129 33.6183L70.3011 33.3454C68.8638 31.9081 66.5153 31.9081 65.078 33.3454C63.6407 34.7827 63.6407 37.1312 65.078 38.5685V38.6075L75.2903 48.7029L75.3683 48.7419L75.4073 48.8198C77.0882 50.0818 79.232 50.9247 81.6438 50.9247H83.7876C89.4444 50.9247 94 46.3691 94 40.7123V30.9677C94 28.9165 92.3093 27.2258 90.2581 27.2258C89.727 27.2258 89.2349 27.372 88.7769 27.5766C88.3676 25.9541 86.8913 24.7312 85.1519 24.7312C84.1969 24.7312 83.3199 25.1063 82.6573 25.7056C81.9946 25.1063 81.1176 24.7312 80.1627 24.7312C79.7241 24.7312 79.31 24.8237 78.9153 24.965V19.7419C78.9153 17.6907 77.2247 16 75.1734 16ZM75.1734 18.4946C75.8653 18.4946 76.4207 19.0501 76.4207 19.7419V33.4623H78.9153V28.4731C78.9153 27.7812 79.4708 27.2258 80.1627 27.2258C80.8545 27.2258 81.41 27.7812 81.41 28.4731V33.4623H83.9046V28.4731C83.9046 27.7812 84.46 27.2258 85.1519 27.2258C85.8438 27.2258 86.3992 27.7812 86.3992 28.4731V33.4623H89.0108V30.9677C89.0108 30.2759 89.5662 29.7204 90.2581 29.7204C90.9499 29.7204 91.5054 30.2759 91.5054 30.9677V40.7123C91.5054 45.0341 88.1094 48.4301 83.7876 48.4301H81.6438C79.8167 48.4301 78.2381 47.7772 76.9274 46.793L66.832 36.8145C66.2766 36.259 66.2766 35.6549 66.832 35.0994C67.3875 34.544 67.9916 34.544 68.5471 35.0994L73.9261 40.4785V19.7419C73.9261 19.0501 74.4815 18.4946 75.1734 18.4946Z" fill="white"/>
<path fill-rule="evenodd" clip-rule="evenodd" d="M62.2426 12.6402L65.6045 10.1462C65.8973 9.92928 66.3392 9.9569 66.5919 10.2081C66.7016 10.3176 66.7621 10.4569 66.7621 10.6012V15.5892C66.7621 15.9211 66.4488 16.1904 66.0621 16.1904C65.898 16.1916 65.7377 16.1404 65.6047 16.0442L62.2428 13.5502C61.9497 13.3333 61.9176 12.9535 62.1702 12.7024C62.1926 12.68 62.2166 12.6595 62.2424 12.6402H62.2426ZM86.7577 12.6402C86.7834 12.6593 86.8077 12.68 86.8298 12.7021C87.0824 12.9535 87.0501 13.3331 86.7577 13.5502L83.3958 16.0442C83.2627 16.1405 83.1024 16.1917 82.9382 16.1904C82.5515 16.1904 82.2382 15.9214 82.2382 15.5892V10.6012C82.2382 10.4569 82.2987 10.3174 82.4084 10.2083C82.661 9.9569 83.1029 9.92928 83.3956 10.1464L86.7577 12.6402ZM70.3335 14.0476C70.0809 14.0476 69.8387 13.9472 69.6601 13.7686C69.4815 13.59 69.3811 13.3478 69.3811 13.0952C69.3811 12.8426 69.4815 12.6004 69.6601 12.4218C69.8387 12.2432 70.0809 12.1428 70.3335 12.1428C70.5861 12.1428 70.8283 12.2432 71.0069 12.4218C71.1855 12.6004 71.2859 12.8426 71.2859 13.0952C71.2859 13.3478 71.1855 13.59 71.0069 13.7686C70.8283 13.9472 70.5861 14.0476 70.3335 14.0476ZM74.6192 14.0476C74.3666 14.0476 74.1244 13.9472 73.9458 13.7686C73.7671 13.59 73.6668 13.3478 73.6668 13.0952C73.6668 12.8426 73.7671 12.6004 73.9458 12.4218C74.1244 12.2432 74.3666 12.1428 74.6192 12.1428C74.8718 12.1428 75.114 12.2432 75.2926 12.4218C75.4712 12.6004 75.5716 12.8426 75.5716 13.0952C75.5716 13.3478 75.4712 13.59 75.2926 13.7686C75.114 13.9472 74.8718 14.0476 74.6192 14.0476ZM78.9049 14.0476C78.6523 14.0476 78.41 13.9472 78.2314 13.7686C78.0528 13.59 77.9525 13.3478 77.9525 13.0952C77.9525 12.8426 78.0528 12.6004 78.2314 12.4218C78.41 12.2432 78.6523 12.1428 78.9049 12.1428C79.1575 12.1428 79.3997 12.2432 79.5783 12.4218C79.7569 12.6004 79.8572 12.8426 79.8572 13.0952C79.8572 13.3478 79.7569 13.59 79.5783 13.7686C79.3997 13.9472 79.1575 14.0476 78.9049 14.0476Z" fill="white"/>
<path d="M1.04 105L7.08 76.44H14.96L16.24 97.8H16.4L27.12 76.44H35.4L29.36 105H23.88L26.72 91.48C26.9067 90.5733 27.12 89.6133 27.36 88.6C27.6267 87.56 27.88 86.5467 28.12 85.56C28.3867 84.5467 28.6267 83.6533 28.84 82.88H28.68L17.56 105H12.08L10.88 82.88H10.72C10.6667 83.44 10.56 84.2133 10.4 85.2C10.24 86.16 10.0533 87.2133 9.84 88.36C9.65333 89.5067 9.44 90.6267 9.2 91.72L6.4 105H1.04ZM32.7953 105L47.7553 76.44H55.0353L57.9153 105H52.1153L51.6353 98.2H42.3953L39.0353 105H32.7953ZM44.8353 93.12H51.3553L50.8353 85.76C50.782 84.9867 50.7286 84.2 50.6753 83.4C50.622 82.6 50.6086 81.7867 50.6353 80.96H50.5553C50.2886 81.68 49.9953 82.4 49.6753 83.12C49.3553 83.8133 48.9953 84.5733 48.5953 85.4L44.8353 93.12ZM63.5203 105L68.4803 81.48H61.6003L62.6803 76.44H82.4003L81.3203 81.48H74.4403L69.4803 105H63.5203ZM91.6691 105.4C89.3491 105.4 87.4157 104.947 85.8691 104.04C84.3224 103.107 83.1491 101.8 82.3491 100.12C81.5757 98.44 81.1891 96.4667 81.1891 94.2C81.1891 92.52 81.3757 90.8267 81.7491 89.12C82.1491 87.3867 82.7357 85.7467 83.5091 84.2C84.3091 82.6267 85.3091 81.2267 86.5091 80C87.7091 78.7467 89.1357 77.7733 90.7891 77.08C92.4691 76.36 94.3624 76 96.4691 76C98.2824 76 99.8157 76.1733 101.069 76.52C102.349 76.84 103.616 77.3467 104.869 78.04L102.549 82.92C101.642 82.3867 100.696 81.9467 99.7091 81.6C98.7491 81.2267 97.6691 81.04 96.4691 81.04C95.1891 81.04 94.0424 81.3067 93.0291 81.84C92.0424 82.3467 91.1757 83.0533 90.4291 83.96C89.7091 84.84 89.1091 85.84 88.6291 86.96C88.1757 88.0533 87.8291 89.2 87.5891 90.4C87.3757 91.6 87.2691 92.76 87.2691 93.88C87.2691 96.04 87.7091 97.6533 88.5891 98.72C89.4957 99.7867 90.9224 100.32 92.8691 100.32C93.9624 100.32 95.0557 100.173 96.1491 99.88C97.2691 99.5867 98.3757 99.2267 99.4691 98.8V103.88C98.6691 104.2 97.6024 104.533 96.2691 104.88C94.9357 105.227 93.4024 105.4 91.6691 105.4ZM104.321 105L110.361 76.44H116.321L113.961 87.64H123.161L125.521 76.44H131.481L125.441 105H119.481L122.081 92.68H112.881L110.281 105H104.321ZM128.889 105L143.849 76.44H151.129L154.009 105H148.209L147.729 98.2H138.489L135.129 105H128.889ZM140.929 93.12H147.449L146.929 85.76C146.876 84.9867 146.822 84.2 146.769 83.4C146.716 82.6 146.702 81.7867 146.729 80.96H146.649C146.382 81.68 146.089 82.4 145.769 83.12C145.449 83.8133 145.089 84.5733 144.689 85.4L140.929 93.12Z" fill="#474747"/>
</svg>
