<svg width="45" height="45" viewBox="0 0 45 45" fill="none" xmlns="http://www.w3.org/2000/svg">
<rect width="45" height="45" rx="22.5" fill="#2B5557"/>
<path d="M32.5161 18.6887C32.2058 17.9669 31.7584 17.3128 31.1988 16.763C30.6389 16.2115 29.9787 15.7733 29.2542 15.4722C28.5029 15.1586 27.6971 14.9981 26.8835 15C25.7422 15 24.6286 15.314 23.6609 15.9071C23.4294 16.049 23.2095 16.2048 23.0011 16.3746C22.7928 16.2048 22.5729 16.049 22.3413 15.9071C21.3736 15.314 20.2601 15 19.1188 15C18.2969 15 17.5005 15.1582 16.7481 15.4722C16.0212 15.7745 15.366 16.2094 14.8034 16.763C14.2432 17.3122 13.7956 17.9664 13.4862 18.6887C13.1644 19.44 13 20.2377 13 21.0587C13 21.8332 13.1574 22.6403 13.47 23.4613C13.7316 24.1474 14.1066 24.8591 14.5858 25.5778C15.3452 26.7151 16.3893 27.9013 17.6857 29.1037C19.8341 31.0969 21.9617 32.4738 22.052 32.5296L22.6006 32.8831C22.8437 33.039 23.1563 33.039 23.3993 32.8831L23.948 32.5296C24.0383 32.4715 26.1635 31.0969 28.3143 29.1037C29.6107 27.9013 30.6548 26.7151 31.4141 25.5778C31.8934 24.8591 32.2707 24.1474 32.53 23.4613C32.8426 22.6403 33 21.8332 33 21.0587C33.0023 20.2377 32.8379 19.44 32.5161 18.6887Z" fill="white"/>
</svg>
