<svg width="24" height="22" viewBox="0 0 24 22" fill="none" xmlns="http://www.w3.org/2000/svg">
<path d="M13.4271 4.39453H5.74762C5.43564 4.39453 5.13566 4.40538 4.84768 4.43794C1.61989 4.68755 0 6.41308 0 9.59284V13.9338C0 18.2748 1.91987 19.1321 5.74762 19.1321H6.22759C6.49157 19.1321 6.83955 19.2949 6.99554 19.4794L8.43545 21.2158C9.07141 21.9863 10.1033 21.9863 10.7393 21.2158L12.1792 19.4794C12.3592 19.2623 12.6472 19.1321 12.9472 19.1321H13.4271C16.9429 19.1321 18.8508 17.6779 19.1267 14.7477C19.1627 14.4873 19.1747 14.216 19.1747 13.9338V9.59284C19.1747 6.13092 17.2549 4.39453 13.4271 4.39453ZM5.39965 13.0765C4.72769 13.0765 4.19972 12.5881 4.19972 11.9912C4.19972 11.3943 4.73969 10.906 5.39965 10.906C6.0596 10.906 6.59957 11.3943 6.59957 11.9912C6.59957 12.5881 6.0596 13.0765 5.39965 13.0765ZM9.58737 13.0765C8.91542 13.0765 8.38745 12.5881 8.38745 11.9912C8.38745 11.3943 8.92741 10.906 9.58737 10.906C10.2473 10.906 10.7873 11.3943 10.7873 11.9912C10.7873 12.5881 10.2593 13.0765 9.58737 13.0765ZM13.7871 13.0765C13.1151 13.0765 12.5872 12.5881 12.5872 11.9912C12.5872 11.3943 13.1271 10.906 13.7871 10.906C14.4471 10.906 14.987 11.3943 14.987 11.9912C14.987 12.5881 14.4471 13.0765 13.7871 13.0765Z" fill="white"/>
<path d="M23.9789 5.25202V9.59299C23.9789 11.7635 23.235 13.2394 21.7471 14.0533C21.3871 14.2487 20.9671 13.9882 20.9671 13.6084L20.9791 9.59299C20.9791 5.25202 18.2313 2.76682 13.4316 2.76682L6.12416 2.77767C5.70419 2.77767 5.41621 2.39783 5.6322 2.07226C6.53214 0.726561 8.16403 0.0537109 10.5518 0.0537109H18.2313C22.0591 0.0537109 23.9789 1.7901 23.9789 5.25202Z" fill="white"/>
</svg>
