<svg width="50" height="50" viewBox="0 0 50 50" fill="none" xmlns="http://www.w3.org/2000/svg">
<path d="M26.9231 23.0769H48.0769C49.139 23.0769 50 23.9379 50 25C50 26.0621 49.139 26.9231 48.0769 26.9231H26.9231V48.0769C26.9231 49.139 26.0621 50 25 50C23.9379 50 23.0769 49.139 23.0769 48.0769V26.9231H1.92308C0.860991 26.9231 0 26.0621 0 25C0 23.9379 0.860991 23.0769 1.92308 23.0769H23.0769V1.92308C23.0769 0.860991 23.9379 0 25 0C26.0621 0 26.9231 0.860991 26.9231 1.92308V23.0769Z" fill="#FF0000"/>
</svg>
